<svg width="1439" height="311" viewBox="0 0 1439 311" fill="none" xmlns="http://www.w3.org/2000/svg">
<path opacity="0.9" fill-rule="evenodd" clip-rule="evenodd" d="M1438.34 160.503C1347.32 375.899 1370.27 -24.6579 1228.82 1.64362C1113.56 23.0756 1271.12 302.244 1070.27 310.032C864.764 317.463 851.342 79.6125 696.866 74.9472C545.391 70.9312 484.812 389.589 303.281 262.563C118.921 137.086 154.819 91.0071 80.1448 100.735C5.47113 110.463 0.453186 163.602 0.453186 164.126C0.453186 164.126 253.619 161.458 558.497 160.503C647.544 160.224 741.311 161.064 834.203 161.062C1024.2 161.056 1211.55 160.503 1354.52 160.503C1381.85 160.503 1438.34 160.503 1438.34 160.503Z" fill="#37BFA7"/>
</svg>
