<svg width="1439" height="373" viewBox="0 0 1439 373" fill="none" xmlns="http://www.w3.org/2000/svg">
<path opacity="0.9" fill-rule="evenodd" clip-rule="evenodd" d="M1438.97 65.9483C1438.97 65.0655 1411.01 72.149 1380.66 65.9483C1354.67 57.982 1327.29 45.9012 1270.51 54.5906C1216.7 65.0655 1213.32 78.39 1186.29 104.564C1163.35 129.427 1112.85 78.705 1056.7 81.8491C982.277 84.5712 964.874 109.017 862.332 190.883C764.103 272.795 727.183 236.639 655.002 181.797C580.207 127.949 590.507 164.709 505.983 161.353C424.263 158.43 400.096 0.033783 277.975 0.033783C128.664 0.033783 104.657 370.32 20.0535 372.606C10.3329 372.854 8.92889 370.848 1.41595 368.063C-0.750183 366.026 1.41595 168.796 1.41595 168.796C1.41595 168.796 340.508 169.584 635.429 168.796C729.384 168.544 821.392 169.584 893.127 169.584C1189.91 169.584 1438.97 168.796 1438.97 168.796L1438.97 65.9483Z" fill="#387AC4"/>
</svg>
